trial_5_IK.mot
nRows=12
nColumns=42

name trial_5_IK.mot
datacolumns 42
datarows 12
range 8.1100000000 8.2200000000
endheader
time	pelvis_tilt	pelvis_list	pelvis_rotation	pelvis_tx	pelvis_ty	pelvis_tz	hip_flexion_r	hip_adduction_r	hip_rotation_r	knee_angle_r	knee_vv_r	knee_rot_r	ankle_angle_r	subtalar_angle_r	mtp_angle_r	hip_flexion_l	hip_adduction_l	hip_rotation_l	knee_angle_l	knee_vv_l	knee_rot_l	ankle_angle_l	subtalar_angle_l	mtp_angle_l	lumbar_extension	lumbar_bending	lumbar_rotation	arm_flex_r	arm_add_r	arm_rot_r	elbow_flex_r	pro_sup_r	wrist_flex_r	wrist_dev_r	arm_flex_l	arm_add_l	arm_rot_l	elbow_flex_l	pro_sup_l	wrist_flex_l	wrist_dev_l
        8.1100000000	       10.5424706200	       -1.5195800400	        4.2075707000	        0.0764191000	        0.9159138500	       -0.0058396500	       -1.6751762500	        5.9186008100	        0.1503510600	      -15.1371422000	        0.0000000000	        0.0000000000	        8.9853443800	        0.0000000000	        0.0000000000	        6.1918424700	       -4.8070168400	       -1.1991133000	      -57.1257470200	        0.0000000000	        0.0000000000	       -2.6280775700	        0.0000000000	        0.0000000000	      -25.2209985100	        0.5350493300	        1.6357234100	       19.1598610600	      -18.1724622000	       31.7941931800	       17.7876464700	       86.5166270600	        0.0000000000	        0.0000000000	        2.0344853700	      -10.3181457100	       43.1711475300	        1.4954904800	       85.9436692700	        0.0000000000	        0.0000000000	
        8.1200000000	       10.3190643100	       -1.3519371400	        4.1178968700	        0.0754001400	        0.9161889600	       -0.0051751000	       -2.0901906600	        5.8033430100	        0.2855502800	      -14.8689015900	        0.0000000000	        0.0000000000	        9.2721496500	        0.0000000000	        0.0000000000	        7.4946796700	       -4.5756479700	       -1.6166740400	      -56.4194376300	        0.0000000000	        0.0000000000	       -1.8601504200	        0.0000000000	        0.0000000000	      -25.0150736300	        0.2326934800	        1.9746351600	       19.8719362500	      -18.5757344600	       31.4283092500	       18.3523412700	       86.5166270600	        0.0000000000	        0.0000000000	        1.3065339200	      -10.3137861800	       43.0583751200	        1.4807716300	       85.9436692700	        0.0000000000	        0.0000000000	
        8.1300000000	       10.0952696200	       -1.1819151800	        4.0059859200	        0.0743878200	        0.9164041600	       -0.0045211700	       -2.5135060000	        5.6641324800	        0.3571789600	      -14.5754872100	        0.0000000000	        0.0000000000	        9.5311719100	        0.0000000000	        0.0000000000	        8.7046935900	       -4.3435731400	       -2.1165355200	      -55.4132075900	        0.0000000000	        0.0000000000	       -1.1057881600	        0.0000000000	        0.0000000000	      -24.8029090300	       -0.0759106800	        2.3297438500	       20.5378075200	      -18.9715913900	       30.9755012700	       18.9280876600	       86.5166270600	        0.0000000000	        0.0000000000	        0.6067963400	      -10.3236898200	       42.9040077200	        1.4814228800	       85.9436692700	        0.0000000000	        0.0000000000	
        8.1400000000	        9.8854025400	       -1.0116235600	        3.8778255500	        0.0734170800	        0.9165864400	       -0.0039033600	       -2.9713386700	        5.5041580200	        0.3581015000	      -14.2513307400	        0.0000000000	        0.0000000000	        9.7682113400	        0.0000000000	        0.0000000000	        9.7982415500	       -4.1173293900	       -2.6960465900	      -54.1183794100	        0.0000000000	        0.0000000000	       -0.3836881100	        0.0000000000	        0.0000000000	      -24.6059725600	       -0.3830627700	        2.7021382100	       21.1523143100	      -19.3617303600	       30.4229650600	       19.5252437500	       86.5166270600	        0.0000000000	        0.0000000000	       -0.0547816900	      -10.3452178100	       42.7084291100	        1.4953862900	       85.9436692700	        0.0000000000	        0.0000000000	
        8.1500000000	        9.7038937100	       -0.8442955300	        3.7387974300	        0.0724870200	        0.9167512900	       -0.0033499200	       -3.4851373100	        5.3307493200	        0.2945030200	      -13.8916582300	        0.0000000000	        0.0000000000	        9.9890601600	        0.0000000000	        0.0000000000	       10.7562594000	       -3.9023929000	       -3.3476667800	      -52.5471888500	        0.0000000000	        0.0000000000	        0.2766322700	        0.0000000000	        0.0000000000	      -24.4405626400	       -0.6805124600	        3.0919994300	       21.7122335600	      -19.7479146100	       29.7726232600	       20.1467206900	       86.5166270600	        0.0000000000	        0.0000000000	       -0.6696023000	      -10.3755990300	       42.4692437300	        1.5230508500	       85.9436692700	        0.0000000000	        0.0000000000	
        8.1600000000	        9.5622698600	       -0.6836943900	        3.5918915000	        0.0715965600	        0.9168943000	       -0.0028721200	       -4.0672652100	        5.1528232600	        0.1827283300	      -13.4930457900	        0.0000000000	        0.0000000000	       10.1994034900	        0.0000000000	        0.0000000000	       11.5680142900	       -3.6996486200	       -4.0584962200	      -50.7130311000	        0.0000000000	        0.0000000000	        0.8445543000	        0.0000000000	        0.0000000000	      -24.3164603200	       -0.9621685900	        3.4990291000	       22.2180073900	      -20.1310878100	       29.0413117900	       20.7876794500	       86.5166270600	        0.0000000000	        0.0000000000	       -1.2333341500	      -10.4116246900	       42.1827907000	        1.5656958000	       85.9436692700	        0.0000000000	        0.0000000000	
        8.1700000000	        9.4646716100	       -0.5326481400	        3.4373260700	        0.0707501100	        0.9170058700	       -0.0024568300	       -4.7207448500	        4.9776025900	        0.0446729900	      -13.0541247700	        0.0000000000	        0.0000000000	       10.4046372200	        0.0000000000	        0.0000000000	       12.2318569700	       -3.5035585700	       -4.8099346100	      -48.6314184600	        0.0000000000	        0.0000000000	        1.2966888700	        0.0000000000	        0.0000000000	      -24.2358398700	       -1.2249107600	        3.9223974600	       22.6745275300	      -20.5105970100	       28.2581369300	       21.4370022900	       86.5166270600	        0.0000000000	        0.0000000000	       -1.7473298700	      -10.4499542500	       41.8456739700	        1.6241037300	       85.9436692700	        0.0000000000	        0.0000000000	
        8.1800000000	        9.4061471400	       -0.3914961800	        3.2729038800	        0.0699435100	        0.9170855100	       -0.0020838000	       -5.4405895700	        4.8081150400	       -0.0964229500	      -12.5765583800	        0.0000000000	        0.0000000000	       10.6096378300	        0.0000000000	        0.0000000000	       12.7540109700	       -3.3035821000	       -5.5776593000	      -46.3197103100	        0.0000000000	        0.0000000000	        1.6213388400	        0.0000000000	        0.0000000000	      -24.1931632200	       -1.4676663700	        4.3594236600	       23.0901657700	      -20.8844695300	       27.4598028700	       22.0796624800	       86.5166270600	        0.0000000000	        0.0000000000	       -2.2173956800	      -10.4877322000	       41.4559887200	        1.6979619100	       85.9436692700	        0.0000000000	        0.0000000000	
        8.1900000000	        9.3752970500	       -0.2588213100	        3.0956431200	        0.0691787000	        0.9171269400	       -0.0017551300	       -6.2143928500	        4.6428548600	       -0.2188133400	      -12.0653513200	        0.0000000000	        0.0000000000	       10.8185085900	        0.0000000000	        0.0000000000	       13.1462179100	       -3.0872244800	       -6.3325854600	      -43.7952730400	        0.0000000000	        0.0000000000	        1.8182687600	        0.0000000000	        0.0000000000	      -24.1773381400	       -1.6904121400	        4.8042174000	       23.4750776400	      -21.2505263900	       26.6848969600	       22.6993608100	       86.5166270600	        0.0000000000	        0.0000000000	       -2.6507413500	      -10.5229697300	       41.0142278300	        1.7861290800	       85.9436692700	        0.0000000000	        0.0000000000	
        8.2000000000	        9.3588308300	       -0.1335824400	        2.9039059800	        0.0684807900	        0.9171016500	       -0.0015074800	       -7.0234862500	        4.4783787900	       -0.3040710400	      -11.5282610700	        0.0000000000	        0.0000000000	       11.0343151900	        0.0000000000	        0.0000000000	       13.4229265100	       -2.8429277200	       -7.0423448400	      -41.0738783900	        0.0000000000	        0.0000000000	        1.8946952100	        0.0000000000	        0.0000000000	      -24.1756266900	       -1.8935959100	        5.2479902500	       23.8400871300	      -21.6072409400	       25.9682879700	       23.2812245800	       86.5166270600	        0.0000000000	        0.0000000000	       -3.0524561600	      -10.5541193000	       40.5239647100	        1.8874873700	       85.9436692700	        0.0000000000	        0.0000000000	
        8.2100000000	        9.3451186700	       -0.0161906400	        2.6985383500	        0.0678665800	        0.9169643600	       -0.0013888400	       -7.8468250100	        4.3133361200	       -0.3386293400	      -10.9746965800	        0.0000000000	        0.0000000000	       11.2588869700	        0.0000000000	        0.0000000000	       13.5986588800	       -2.5627085400	       -7.6720858600	      -38.1698437100	        0.0000000000	        0.0000000000	        1.8595707900	        0.0000000000	        0.0000000000	      -24.1774611300	       -2.0771255000	        5.6811980200	       24.1960259000	      -21.9535544900	       25.3367681000	       23.8142343800	       86.5166270600	        0.0000000000	        0.0000000000	       -3.4234118100	      -10.5790429400	       39.9923809500	        2.0015847400	       85.9436692700	        0.0000000000	        0.0000000000	
        8.2200000000	        9.3265672200	        0.0908042600	        2.4830499400	        0.0673027400	        0.9166890800	       -0.0014043100	       -8.6666809600	        4.1507534500	       -0.3150762100	      -10.4144415800	        0.0000000000	        0.0000000000	       11.4928264200	        0.0000000000	        0.0000000000	       13.6859537400	       -2.2441481100	       -8.1845444700	      -35.0983041900	        0.0000000000	        0.0000000000	        1.7186240300	        0.0000000000	        0.0000000000	      -24.1768869900	       -2.2387823800	        6.0959198600	       24.5526405800	      -22.2878802900	       24.8066157900	       24.2926593000	       86.5166270600	        0.0000000000	        0.0000000000	       -3.7612167500	      -10.5942925300	       39.4306146400	        2.1281904500	       85.9436692700	        0.0000000000	        0.0000000000	
